<?xml version="1.0" encoding="utf-8"?>
<!-- Generator: Adobe Illustrator 19.2.1, SVG Export Plug-In . SVG Version: 6.00 Build 0)  -->
<svg version="1.1" id="layer" xmlns="http://www.w3.org/2000/svg" xmlns:xlink="http://www.w3.org/1999/xlink" x="0px" y="0px"
	 viewBox="0 0 652 652" style="enable-background:new 0 0 652 652;" xml:space="preserve">
<path d="M70.9,366.9c-14.2-0.5-25.3-12.5-24.8-26.7C45.5,326,56.7,314,70.9,313.5c8.9,0.1,17,5.1,21.2,12.9l16.4-10.8
	c-7.6-13.7-21.8-22.4-37.5-22.6c-25.1,1.1-44.8,22.1-44.1,47.3c-0.8,25.2,18.9,46.3,44.1,47.4c15.3-0.2,29.3-8.4,37-21.6l-16.1-11.2
	C87.4,362.2,79.5,366.8,70.9,366.9L70.9,366.9z M179.3,348.9c-0.1,10-8.3,18.1-18.3,18h-1.9c-10,0.1-18.2-8-18.3-18v-54.2h-21.8v55
	c0.2,21.2,17.6,38.1,38.7,37.9h4.7c21.2,0.3,38.5-16.7,38.7-37.9v-54.9h-21.8L179.3,348.9L179.3,348.9z M431.7,294.8H412v90.3h19.7
	V344c0-21.4,12.9-29.8,29-29.8v-19.4c-10.3-0.1-20.4,2.8-29,8.4V294.8z M537.3,381.9c-6.2,3.5-13.1,5.3-20.2,5.3
	c-25-1.1-44.6-22-44.1-47.1v-77.4h19.4v32.3h33.8v19.4h-33.5v25.8c-0.3,13.9,10.5,25.6,24.4,26.4c3.3,0,6.5-0.7,9.5-2L537.3,381.9z
	 M582.5,292.4c-25.3,0.9-45.1,22.2-44.3,47.4c-2,25.8,18.4,47.8,44.3,47.8c25.8,0,46.2-22,44.3-47.8c0.8-25.2-18.8-46.4-44-47.4
	H582.5z M582.5,366.6c-14.3-0.4-25.5-12.4-25-26.7c-0.7-14.2,10.7-26.2,24.9-26.2c14.3,0,25.7,12,24.9,26.2
	c0.5,14.2-10.5,26.1-24.6,26.7H582.5z M259.1,292.4c-8.8,0-17.4,2.8-24.6,8v-37.6h-19.7v77.4c-0.8,25.3,19,46.5,44.3,47.4
	c25.3-0.9,45.2-22.1,44.3-47.4C304.4,314.8,284.5,293.3,259.1,292.4L259.1,292.4z M259.1,366.6c-14.3-0.4-25.5-12.4-25-26.7
	c-0.7-14.2,10.7-26.2,24.9-26.2c14.3,0,25.7,12,24.9,26.2C284.5,354.1,273.3,366.1,259.1,366.6L259.1,366.6z M400.4,347.9
	c0.4-2.7,0.6-5.3,0.6-8c0-2.7-0.2-5.5-0.6-8.2c-2.9-22.1-21.4-38.8-43.6-39.4c-25.3,0.9-45.1,22.1-44.3,47.4
	c-0.8,25.3,19,46.5,44.3,47.4c15.2-0.2,29.2-8.3,37-21.4l-16.1-11.4c-4.4,7.4-12.3,11.9-20.8,12c-11.2-0.3-20.9-7.9-23.8-18.7
	L400.4,347.9z M356.8,313.1c11.2,0.2,20.8,7.8,23.8,18.6h-47.2C336.3,321,345.8,313.4,356.8,313.1L356.8,313.1z M356.8,313.1"/>
</svg>
